<svg width="50" height="50" viewBox="0 0 50 50" fill="none" xmlns="http://www.w3.org/2000/svg">
<circle cx="25" cy="25" r="25" fill="white"/>
<path d="M18.99 33L19.32 30.91L25.04 25.608C25.8173 24.8893 26.4333 24.2147 26.888 23.584C27.3573 22.9387 27.592 22.2567 27.592 21.538C27.592 20.9367 27.3867 20.4747 26.976 20.152C26.5653 19.8147 25.9933 19.646 25.26 19.646C24.5853 19.646 23.918 19.7853 23.258 20.064C22.598 20.328 21.938 20.7167 21.278 21.23L20.42 19.096C21.1827 18.5093 22.0187 18.062 22.928 17.754C23.852 17.4313 24.8127 17.27 25.81 17.27C26.734 17.27 27.5407 17.4387 28.23 17.776C28.9193 18.0987 29.4473 18.546 29.814 19.118C30.1953 19.69 30.386 20.35 30.386 21.098C30.386 21.9487 30.232 22.7187 29.924 23.408C29.616 24.0973 29.1907 24.75 28.648 25.366C28.1053 25.982 27.482 26.598 26.778 27.214L22.928 30.668H29.572L29.198 33H18.99Z" fill="#2A807F"/>
</svg>
