<svg width="50" height="50" viewBox="0 0 50 50" fill="none" xmlns="http://www.w3.org/2000/svg">
<circle cx="25" cy="25" r="25" fill="white"/>
<path d="M24.072 33.22C23.0893 33.22 22.092 33.0807 21.08 32.802C20.068 32.5233 19.2173 32.0467 18.528 31.372L19.65 29.348C20.3393 29.92 21.0433 30.316 21.762 30.536C22.4807 30.7413 23.2507 30.844 24.072 30.844C24.8933 30.844 25.5827 30.624 26.14 30.184C26.6973 29.744 26.976 29.1207 26.976 28.314C26.976 27.698 26.7633 27.214 26.338 26.862C25.9273 26.51 25.3113 26.334 24.49 26.334H22.092L22.444 24.002H24.666C25.5313 24.002 26.25 23.7893 26.822 23.364C27.4087 22.9387 27.702 22.3373 27.702 21.56C27.702 20.9587 27.482 20.4893 27.042 20.152C26.6167 19.8147 26.052 19.646 25.348 19.646C24.6293 19.646 23.9107 19.778 23.192 20.042C22.4733 20.2913 21.7913 20.68 21.146 21.208L20.266 19.096C21.014 18.4947 21.872 18.04 22.84 17.732C23.808 17.424 24.7687 17.27 25.722 17.27C26.7633 17.27 27.6287 17.4533 28.318 17.82C29.022 18.172 29.55 18.6413 29.902 19.228C30.254 19.8147 30.43 20.4527 30.43 21.142C30.4447 22.11 30.1587 22.9387 29.572 23.628C28.9853 24.3173 28.23 24.794 27.306 25.058C28.0833 25.322 28.6773 25.762 29.088 26.378C29.4987 26.9793 29.704 27.6833 29.704 28.49C29.704 29.3553 29.4693 30.1473 29 30.866C28.5453 31.5847 27.9 32.1567 27.064 32.582C26.228 33.0073 25.2307 33.22 24.072 33.22Z" fill="#2A807F"/>
</svg>
