<svg width="102" height="39" viewBox="0 0 102 39" fill="none" xmlns="http://www.w3.org/2000/svg">
<g clip-path="url(#clip0_142_2027)">
<path d="M94.6621 3.93161C96.7506 3.93161 98.371 5.79197 98.133 7.91429L95.4403 31.9004C95.2382 33.7055 93.7439 35.0665 91.9694 35.0665H7.33782C5.24929 35.0665 3.62888 33.2062 3.86694 31.0838L6.55962 7.0977C6.76167 5.2926 8.25606 3.93161 10.0305 3.93161H94.6621ZM94.6621 9.34745e-05H10.0305C6.29956 9.34745e-05 3.16476 2.85919 2.73865 6.65154L0.0479632 30.6356C-0.190098 32.76 0.470071 34.8926 1.86043 36.4889C3.25078 38.0853 5.24729 39.0001 7.33782 39.0001H91.9694C95.7003 39.0001 98.8331 36.141 99.2593 32.3486L101.952 8.3625C102.19 6.23813 101.53 4.10557 100.139 2.50922C98.7491 0.912877 96.7526 -0.00195312 94.6621 -0.00195312V9.34745e-05Z" fill="white"/>
<path d="M21.3995 10.7732L10.0667 28.3166H14.9639L17.1184 24.7576H25.2465L26.1948 28.3166H30.7079L25.1445 10.7732H21.4015H21.3995ZM19.245 21.2497L22.7059 15.55H22.7579L24.2963 21.2497H19.245Z" fill="white"/>
<path d="M58.1049 15.2389C58.9171 14.6823 59.9293 14.406 61.1436 14.406C62.8521 14.406 64.4085 14.8869 65.8108 15.8488L67.5793 12.2898C67.0151 11.7925 66.1849 11.3688 65.0926 11.0209C63.9984 10.673 62.76 10.499 61.3757 10.499C59.0851 10.499 57.1486 10.9431 55.5682 11.8314C53.9858 12.7196 52.7895 13.9209 51.9793 15.4395C51.1671 16.9581 50.761 18.6629 50.761 20.554C50.761 22.2956 51.1411 23.7651 51.9013 24.9582C52.6615 26.1535 53.7097 27.0581 55.0421 27.67C56.3764 28.284 57.8888 28.591 59.5812 28.591C60.6415 28.591 61.7438 28.4948 62.8881 28.3044C64.0324 28.1141 65.0766 27.803 66.0169 27.3712L67.4792 18.4378H59.9913L59.5032 21.6489H63.1181L62.656 24.4609C61.8018 24.6594 61.0156 24.7597 60.2974 24.7597C58.845 24.7597 57.7028 24.4077 56.8745 23.7016C56.0443 22.9976 55.6302 21.8884 55.6302 20.38C55.6302 19.3178 55.8383 18.3355 56.2584 17.4309C56.6765 16.5263 57.2927 15.7977 58.1049 15.241V15.2389Z" fill="white"/>
<path d="M87.2084 14.1195C86.4982 12.9508 85.5039 12.0544 84.2216 11.4323C82.9393 10.8101 81.4349 10.499 79.7084 10.499C77.7599 10.499 76.0455 10.9309 74.5671 11.7925C73.0888 12.6561 71.9385 13.8534 71.1183 15.3884C70.298 16.9233 69.8879 18.7018 69.8879 20.7259C69.8879 22.3857 70.242 23.7999 70.9522 24.9685C71.6624 26.1391 72.6566 27.0335 73.939 27.6557C75.2213 28.2778 76.7257 28.5889 78.4521 28.5889C80.4186 28.5889 82.1351 28.1571 83.6054 27.2955C85.0758 26.4338 86.2201 25.2345 87.0423 23.6996C87.8625 22.1646 88.2726 20.378 88.2726 18.3375C88.2726 16.6961 87.9185 15.2881 87.2084 14.1195ZM82.8112 21.7349C82.4171 22.6886 81.859 23.4315 81.1328 23.9616C80.4066 24.4916 79.5304 24.7577 78.5041 24.7577C77.3578 24.7577 76.4536 24.422 75.7854 23.7508C75.1193 23.0795 74.7852 22.0459 74.7852 20.6522C74.7852 19.4079 74.9772 18.3088 75.3613 17.3551C75.7454 16.4014 76.3016 15.6585 77.0278 15.1284C77.7539 14.5984 78.6222 14.3323 79.6304 14.3323C80.7927 14.3323 81.7109 14.6679 82.3871 15.3392C83.0613 16.0105 83.3994 17.044 83.3994 18.4378C83.3994 19.6821 83.2033 20.7811 82.8092 21.7349H82.8112Z" fill="white"/>
<path d="M45.7458 23.1389C45.6698 23.1573 45.5958 23.1798 45.5178 23.1962C45.1077 23.2781 43.9274 23.4766 42.1769 23.4766H41.1606L43.0431 28.3168H47.8644L46.1199 23.888C46.0079 23.6178 45.8818 23.3702 45.7478 23.1389H45.7458Z" fill="white"/>
<path d="M47.208 12.1036C46.1058 11.2154 44.5193 10.7712 42.4508 10.7712H34.6808L31.8081 28.3147H37.4215L37.1795 27.6188C36.9394 26.9271 36.8754 26.1862 36.9954 25.4638L37.6036 21.7717H40.7764C42.5268 21.7717 43.7071 21.5732 44.1172 21.4913C45.5096 21.1823 46.6439 20.5765 47.5121 19.6678C48.4103 18.7305 48.8585 17.4329 48.8585 15.7731C48.8585 14.2136 48.3083 12.9898 47.204 12.1015L47.208 12.1036ZM41.5286 18.536H38.1177L38.7019 14.9504V14.9463L38.7819 14.4531L38.8199 14.2279L41.8167 14.2812C42.6729 14.2996 43.309 14.4572 43.7191 14.7519C44.1553 15.0671 44.3733 15.548 44.3733 16.1947C44.3733 17.7542 43.4251 18.534 41.5266 18.534L41.5286 18.536Z" fill="white"/>
</g>
<defs>
<clipPath id="clip0_142_2027">
<rect width="102" height="39" fill="white"/>
</clipPath>
</defs>
</svg>
