<svg width="120" height="28" viewBox="0 0 120 28" fill="none" xmlns="http://www.w3.org/2000/svg">
<path d="M17.3906 0.843018L0 27.1571H7.51501L10.82 21.8194H23.292L24.7476 27.1571H31.6725L23.1352 0.843018H17.3906ZM14.0856 16.5564L19.3969 8.00921H19.4758L21.8364 16.5564H14.0856Z" fill="white"/>
<path d="M73.7123 7.54298C74.9584 6.70932 76.5116 6.29249 78.3742 6.29249C80.9969 6.29249 83.3838 7.01426 85.5349 8.45781L88.2498 3.1202C87.3843 2.37429 86.1119 1.73917 84.4336 1.21703C82.7553 0.6949 80.8532 0.433838 78.7296 0.433838C75.214 0.433838 72.2435 1.09967 69.8182 2.43024C67.3918 3.7619 65.5556 5.56523 64.3106 7.84244C63.0645 10.1196 62.4414 12.6755 62.4414 15.5121C62.4414 18.125 63.025 20.3276 64.1921 22.1189C65.3592 23.9101 66.9662 25.267 69.012 26.1874C71.0577 27.1088 73.3799 27.5684 75.9763 27.5684C77.602 27.5684 79.2945 27.4247 81.0518 27.1395C82.809 26.8543 84.4083 26.387 85.8519 25.7398L88.0951 12.3398H76.607L75.86 17.1553H81.4072L80.6986 21.373C79.3866 21.6713 78.18 21.8216 77.0787 21.8216C74.8487 21.8216 73.098 21.2929 71.8267 20.2355C70.5542 19.178 69.9191 17.5173 69.9191 15.2532C69.9191 13.6605 70.2394 12.1862 70.8833 10.8305C71.5261 9.47466 72.4706 8.37993 73.7156 7.54627L73.7123 7.54298Z" fill="white"/>
<path d="M118.368 5.8625C117.279 4.10852 115.752 2.76479 113.784 1.83131C111.817 0.897833 109.508 0.431641 106.859 0.431641C103.869 0.431641 101.238 1.07882 98.97 2.37209C96.7005 3.66646 94.9366 5.46431 93.6785 7.76565C92.4192 10.067 91.7896 12.7358 91.7896 15.7721C91.7896 18.261 92.3336 20.3813 93.4218 22.1353C94.5099 23.8893 96.0379 25.233 98.0058 26.1665C99.9726 27.1 102.281 27.5662 104.931 27.5662C107.947 27.5662 110.583 26.919 112.839 25.6257C115.095 24.3325 116.852 22.5346 118.111 20.2322C119.371 17.9308 120 15.2499 120 12.1884C120 9.72476 119.456 7.61648 118.368 5.8625ZM111.62 17.2836C111.016 18.7151 110.157 19.8285 109.043 20.6249C107.927 21.4212 106.584 21.8194 105.01 21.8194C103.252 21.8194 101.863 21.3148 100.839 20.3079C99.8157 19.2998 99.3046 17.7509 99.3046 15.6613C99.3046 13.7954 99.5996 12.1468 100.19 10.7153C100.78 9.28489 101.632 8.17152 102.748 7.37515C103.862 6.57879 105.193 6.1806 106.741 6.1806C108.524 6.1806 109.934 6.68409 110.97 7.69216C112.006 8.70023 112.525 10.2491 112.525 12.3387C112.525 14.2046 112.223 15.8533 111.62 17.2847V17.2836Z" fill="white"/>
<path d="M56.9907 2.83929C55.2993 1.50873 52.8652 0.841797 49.6929 0.841797H37.7716L33.3652 27.1558H41.9783L41.6075 26.1105C41.24 25.0739 41.1424 23.9616 41.3245 22.8768L42.2569 17.3384H47.1261C49.8114 17.3384 51.6235 17.04 52.2531 16.9183C54.3888 16.4554 56.1285 15.5471 57.4635 14.1837C58.8412 12.7785 59.529 10.8304 59.529 8.34255C59.529 6.00391 58.6833 4.16876 56.9907 2.8371V2.83929ZM48.2768 12.4878H43.0434L43.9385 7.10961V7.10412L44.0613 6.3648L44.1184 6.02695L48.7166 6.10812V6.11141C50.0319 6.13774 51.0092 6.37138 51.6378 6.81563C52.3069 7.28841 52.6414 8.01018 52.6414 8.98095C52.6414 11.3207 51.1858 12.49 48.2746 12.49L48.2768 12.4878Z" fill="white"/>
<path d="M53.9804 18.2918C53.9223 18.2249 53.8598 18.1624 53.7994 18.0999C53.704 18.1229 53.6118 18.1492 53.5142 18.1712C52.8846 18.2929 51.0725 18.5902 48.3883 18.5902H47.1411C47.2541 18.7832 47.3583 18.9993 47.4493 19.2439L50.5975 27.1571H57.9941L55.3187 20.5131C54.9512 19.6421 54.5047 18.9028 53.9804 18.2929V18.2918Z" fill="white"/>
</svg>
