<svg width="1084" height="248" viewBox="0 0 1084 248" fill="none" xmlns="http://www.w3.org/2000/svg">
<path d="M158.54 3.75L0 243.64H68.51L98.64 194.98H212.34L225.61 243.64H288.74L210.91 3.75H158.54ZM128.41 147L176.83 69.08H177.55L199.07 147H128.41Z" fill="url(#paint0_linear_144_1485)" fill-opacity="0.6"/>
<path d="M671.99 64.8295C683.35 57.2295 697.51 53.4295 714.49 53.4295C738.4 53.4295 760.16 60.0095 779.77 73.1695L804.52 24.5095C796.63 17.7095 785.03 11.9195 769.73 7.15948C754.43 2.39948 737.09 0.0195312 717.73 0.0195312C685.68 0.0195312 658.6 6.08954 636.49 18.2195C614.37 30.3595 597.63 46.7995 586.28 67.5595C574.92 88.3195 569.24 111.619 569.24 137.479C569.24 161.299 574.56 181.38 585.2 197.71C595.84 214.04 610.49 226.41 629.14 234.799C647.79 243.199 668.96 247.39 692.63 247.39C707.45 247.39 722.88 246.079 738.9 243.479C754.92 240.879 769.5 236.62 782.66 230.72L803.11 108.56H698.38L691.57 152.46H742.14L735.68 190.909C723.72 193.629 712.72 195 702.68 195C682.35 195 666.39 190.179 654.8 180.539C643.2 170.899 637.41 155.76 637.41 135.12C637.41 120.6 640.33 107.16 646.2 94.7995C652.06 82.4395 660.67 72.4595 672.02 64.8595L671.99 64.8295Z" fill="url(#paint1_linear_144_1485)" fill-opacity="0.6"/>
<path d="M1079.09 49.51C1069.16 33.52 1055.24 21.27 1037.3 12.76C1019.37 4.25001 998.32 0 974.17 0C946.91 0 922.93 5.9 902.25 17.69C881.56 29.49 865.48 45.88 854.01 66.86C842.53 87.84 836.79 112.17 836.79 139.85C836.79 162.54 841.75 181.87 851.67 197.86C861.59 213.85 875.52 226.1 893.46 234.61C911.39 243.12 932.43 247.37 956.59 247.37C984.09 247.37 1008.12 241.47 1028.69 229.68C1049.25 217.89 1065.27 201.5 1076.75 180.51C1088.23 159.53 1093.97 135.09 1093.97 107.18C1093.97 84.72 1089.01 65.5 1079.09 49.51ZM1017.57 153.63C1012.07 166.68 1004.24 176.83 994.08 184.09C983.91 191.35 971.66 194.98 957.31 194.98C941.29 194.98 928.62 190.38 919.29 181.2C909.96 172.01 905.3 157.89 905.3 138.84C905.3 121.83 907.99 106.8 913.37 93.75C918.75 80.71 926.52 70.56 936.69 63.3C946.85 56.04 958.98 52.41 973.09 52.41C989.35 52.41 1002.2 57 1011.65 66.19C1021.09 75.38 1025.82 89.5 1025.82 108.55C1025.82 125.56 1023.07 140.59 1017.57 153.64V153.63Z" fill="url(#paint2_linear_144_1485)" fill-opacity="0.6"/>
<path d="M519.55 21.9503C504.13 9.82026 481.94 3.74023 453.02 3.74023H344.34L304.17 243.63H382.69L379.31 234.1C375.96 224.65 375.07 214.51 376.73 204.62L385.23 154.13H429.62C454.1 154.13 470.62 151.41 476.36 150.3C495.83 146.08 511.69 137.8 523.86 125.37C536.42 112.56 542.69 94.8002 542.69 72.1202C542.69 50.8002 534.98 34.0702 519.55 21.9302V21.9503ZM440.11 109.91H392.4L400.56 60.8802V60.8303L401.68 54.0903L402.2 51.0103L444.12 51.7502V51.7803C456.11 52.0203 465.02 54.1503 470.75 58.2003C476.85 62.5103 479.9 69.0902 479.9 77.9402C479.9 99.2702 466.63 109.93 440.09 109.93L440.11 109.91Z" fill="url(#paint3_linear_144_1485)" fill-opacity="0.6"/>
<path d="M492.11 162.82C491.58 162.21 491.01 161.64 490.46 161.07C489.59 161.28 488.75 161.52 487.86 161.72C482.12 162.83 465.6 165.54 441.13 165.54H429.76C430.79 167.3 431.74 169.27 432.57 171.5L461.27 243.64H528.7L504.31 183.07C500.96 175.13 496.89 168.39 492.11 162.83V162.82Z" fill="url(#paint4_linear_144_1485)" fill-opacity="0.6"/>
<defs>
<linearGradient id="paint0_linear_144_1485" x1="539.5" y1="-161" x2="541.5" y2="233.5" gradientUnits="userSpaceOnUse">
<stop stop-color="white"/>
<stop offset="1" stop-color="white" stop-opacity="0"/>
</linearGradient>
<linearGradient id="paint1_linear_144_1485" x1="539.5" y1="-161" x2="541.5" y2="233.5" gradientUnits="userSpaceOnUse">
<stop stop-color="white"/>
<stop offset="1" stop-color="white" stop-opacity="0"/>
</linearGradient>
<linearGradient id="paint2_linear_144_1485" x1="539.5" y1="-161" x2="541.5" y2="233.5" gradientUnits="userSpaceOnUse">
<stop stop-color="white"/>
<stop offset="1" stop-color="white" stop-opacity="0"/>
</linearGradient>
<linearGradient id="paint3_linear_144_1485" x1="539.5" y1="-161" x2="541.5" y2="233.5" gradientUnits="userSpaceOnUse">
<stop stop-color="white"/>
<stop offset="1" stop-color="white" stop-opacity="0"/>
</linearGradient>
<linearGradient id="paint4_linear_144_1485" x1="539.5" y1="-161" x2="541.5" y2="233.5" gradientUnits="userSpaceOnUse">
<stop stop-color="white"/>
<stop offset="1" stop-color="white" stop-opacity="0"/>
</linearGradient>
</defs>
</svg>
