<svg width="26" height="28" viewBox="0 0 26 28" fill="none" xmlns="http://www.w3.org/2000/svg">
<path d="M9 12.1667L11.6667 14.8333L17.6667 8.83333M10.2 23.1L12.1467 25.6956C12.4362 26.0815 12.5809 26.2745 12.7584 26.3436C12.9138 26.404 13.0862 26.404 13.2416 26.3436C13.4191 26.2745 13.5638 26.0815 13.8533 25.6956L15.8 23.1C16.1909 22.5788 16.3863 22.3183 16.6247 22.1193C16.9425 21.8541 17.3177 21.6664 17.7207 21.5713C18.0228 21.5 18.3486 21.5 19 21.5C20.8638 21.5 21.7957 21.5 22.5307 21.1955C23.5108 20.7895 24.2895 20.0108 24.6955 19.0307C25 18.2956 25 17.3638 25 15.5V7.9C25 5.65979 25 4.53968 24.564 3.68404C24.1805 2.93139 23.5686 2.31947 22.816 1.93597C21.9603 1.5 20.8402 1.5 18.6 1.5H7.4C5.15979 1.5 4.03969 1.5 3.18404 1.93597C2.43139 2.31947 1.81947 2.93139 1.43597 3.68404C1 4.53968 1 5.65979 1 7.9V15.5C1 17.3638 1 18.2956 1.30448 19.0307C1.71046 20.0108 2.48915 20.7895 3.46927 21.1955C4.20435 21.5 5.13623 21.5 7 21.5C7.65144 21.5 7.97716 21.5 8.27934 21.5713C8.68225 21.6664 9.05749 21.8541 9.37533 22.1193C9.61371 22.3183 9.80914 22.5788 10.2 23.1Z" stroke="white" stroke-width="2" stroke-linecap="round" stroke-linejoin="round"/>
</svg>
