<svg width="495" height="445" viewBox="0 0 495 445" fill="none" xmlns="http://www.w3.org/2000/svg">
<path d="M408.735 44.8646C434.025 44.8646 453.229 67.6462 448.935 92.5747L401.797 366.258C398.43 385.823 381.457 400.127 361.597 400.127H85.6661C60.3756 400.127 41.172 377.345 45.4657 352.417L92.6033 78.7339C95.9709 59.1683 112.944 44.8646 132.804 44.8646H408.735ZM408.735 0H132.804C90.9869 0 55.4842 29.9125 48.3871 71.1232L1.24938 344.806C-3.04429 369.76 3.84243 395.168 20.1583 414.532C36.4743 433.895 60.3504 445 85.6661 445H361.597C403.414 445 438.917 415.088 446.014 373.877L493.151 100.194C497.445 75.2401 490.558 49.8317 474.242 30.4682C457.927 11.1046 434.05 0 408.735 0Z" fill="white" fill-opacity="0.6"/>
</svg>
