<svg width="120" height="28" viewBox="0 0 120 28" fill="none" xmlns="http://www.w3.org/2000/svg">
<path d="M17.3906 0.843018L0 27.1571H7.51501L10.82 21.8195H23.292L24.7477 27.1571H31.6725L23.1352 0.843018H17.3906ZM14.0856 16.5564L19.3969 8.00921H19.4759L21.8364 16.5564H14.0856Z" fill="url(#paint0_linear_142_2188)"/>
<path d="M73.712 7.54299C74.9581 6.70933 76.5114 6.2925 78.374 6.2925C80.9967 6.2925 83.3836 7.01427 85.5347 8.45782L88.2496 3.1202C87.3841 2.37429 86.1116 1.73917 84.4334 1.21704C82.7551 0.6949 80.853 0.433838 78.7294 0.433838C75.2137 0.433838 72.2433 1.09967 69.818 2.43024C67.3916 3.7619 65.5553 5.56524 64.3103 7.84245C63.0642 10.1197 62.4412 12.6755 62.4412 15.5121C62.4412 18.125 63.0247 20.3276 64.1919 22.1189C65.359 23.9102 66.966 25.2671 69.0117 26.1874C71.0575 27.1088 73.3797 27.5684 75.9761 27.5684C77.6017 27.5684 79.2943 27.4247 81.0515 27.1395C82.8088 26.8543 84.4081 26.387 85.8517 25.7398L88.0949 12.3398H76.6068L75.8598 17.1553H81.4069L80.6983 21.373C79.3864 21.6713 78.1798 21.8216 77.0785 21.8216C74.8484 21.8216 73.0978 21.2929 71.8264 20.2355C70.554 19.178 69.9189 17.5173 69.9189 15.2533C69.9189 13.6605 70.2392 12.1863 70.8831 10.8305C71.5259 9.47467 72.4703 8.37994 73.7153 7.54628L73.712 7.54299Z" fill="url(#paint1_linear_142_2188)"/>
<path d="M118.368 5.8625C117.278 4.10853 115.752 2.7648 113.784 1.83131C111.817 0.897834 109.508 0.431641 106.859 0.431641C103.869 0.431641 101.238 1.07882 98.9698 2.3721C96.7002 3.66646 94.9364 5.46432 93.6782 7.76566C92.4189 10.067 91.7893 12.7358 91.7893 15.7721C91.7893 18.261 92.3334 20.3814 93.4215 22.1353C94.5097 23.8893 96.0377 25.2331 98.0056 26.1665C99.9723 27.1 102.28 27.5662 104.93 27.5662C107.947 27.5662 110.583 26.919 112.839 25.6257C115.095 24.3325 116.852 22.5346 118.111 20.2322C119.37 17.9308 120 15.25 120 12.1885C120 9.72476 119.456 7.61648 118.368 5.8625ZM111.619 17.2837C111.016 18.7151 110.157 19.8285 109.043 20.6249C107.927 21.4213 106.583 21.8194 105.009 21.8194C103.252 21.8194 101.862 21.3148 100.839 20.3079C99.8155 19.2998 99.3043 17.7509 99.3043 15.6613C99.3043 13.7954 99.5994 12.1468 100.19 10.7153C100.78 9.2849 101.632 8.17152 102.748 7.37516C103.862 6.57879 105.193 6.18061 106.74 6.18061C108.524 6.18061 109.934 6.6841 110.97 7.69217C112.006 8.70024 112.524 10.2491 112.524 12.3387C112.524 14.2046 112.223 15.8533 111.619 17.2848V17.2837Z" fill="url(#paint2_linear_142_2188)"/>
<path d="M56.9905 2.83929C55.299 1.50873 52.865 0.841797 49.6927 0.841797H37.7713L33.365 27.1559H41.978L41.6073 26.1105C41.2398 25.0739 41.1422 23.9616 41.3243 22.8768L42.2566 17.3384H47.1259C49.8111 17.3384 51.6233 17.04 52.2529 16.9183C54.3886 16.4554 56.1283 15.5471 57.4633 14.1837C58.841 12.7785 59.5288 10.8304 59.5288 8.34255C59.5288 6.00391 58.6831 4.16876 56.9905 2.8371V2.83929ZM48.2766 12.4878H43.0431L43.9382 7.10961V7.10413L44.0611 6.3648L44.1181 6.02695L48.7164 6.10812V6.11142C50.0316 6.13774 51.009 6.37138 51.6375 6.81564C52.3066 7.28841 52.6412 8.01018 52.6412 8.98096C52.6412 11.3207 51.1856 12.49 48.2744 12.49L48.2766 12.4878Z" fill="url(#paint3_linear_142_2188)"/>
<path d="M53.9807 18.2918C53.9225 18.2249 53.86 18.1624 53.7997 18.0999C53.7042 18.1229 53.6121 18.1492 53.5145 18.1712C52.8848 18.2929 51.0727 18.5902 48.3886 18.5902H47.1414C47.2543 18.7832 47.3585 18.9993 47.4496 19.2439L50.5978 27.1571H57.9943L55.3189 20.5131C54.9514 19.6421 54.505 18.9028 53.9807 18.2929V18.2918Z" fill="url(#paint4_linear_142_2188)"/>
<defs>
<linearGradient id="paint0_linear_142_2188" x1="-1.61248" y1="18.2556" x2="113.141" y2="-0.42502" gradientUnits="userSpaceOnUse">
<stop stop-color="#0B564A"/>
<stop offset="1" stop-color="#008A9A"/>
</linearGradient>
<linearGradient id="paint1_linear_142_2188" x1="0.311477" y1="26.5768" x2="115.064" y2="7.89619" gradientUnits="userSpaceOnUse">
<stop stop-color="#0B564A"/>
<stop offset="1" stop-color="#008A9A"/>
</linearGradient>
<linearGradient id="paint2_linear_142_2188" x1="1.05848" y1="31.0676" x2="115.812" y2="12.387" gradientUnits="userSpaceOnUse">
<stop stop-color="#0B564A"/>
<stop offset="1" stop-color="#008A9A"/>
</linearGradient>
<linearGradient id="paint3_linear_142_2188" x1="-2.49779" y1="20.8968" x2="112.255" y2="2.21624" gradientUnits="userSpaceOnUse">
<stop stop-color="#0B564A"/>
<stop offset="1" stop-color="#008A9A"/>
</linearGradient>
<linearGradient id="paint4_linear_142_2188" x1="-5.21255" y1="32.2798" x2="109.54" y2="13.5992" gradientUnits="userSpaceOnUse">
<stop stop-color="#0B564A"/>
<stop offset="1" stop-color="#008A9A"/>
</linearGradient>
</defs>
</svg>
